<svg id="visual" viewBox="0 0 1920 1080" width="1920" height="1080" xmlns="http://www.w3.org/2000/svg" xmlns:xlink="http://www.w3.org/1999/xlink" version="1.1"><rect x="0" y="0" width="1920" height="1080" fill="#94ffae"></rect><path d="M0 805L35.5 791.8C71 778.7 142 752.3 213.2 738.5C284.3 724.7 355.7 723.3 426.8 705.8C498 688.3 569 654.7 640 666.3C711 678 782 735 853.2 773.8C924.3 812.7 995.7 833.3 1066.8 808.5C1138 783.7 1209 713.3 1280 688.2C1351 663 1422 683 1493.2 693.5C1564.3 704 1635.7 705 1706.8 699.3C1778 693.7 1849 681.3 1884.5 675.2L1920 669L1920 1081L1884.5 1081C1849 1081 1778 1081 1706.8 1081C1635.7 1081 1564.3 1081 1493.2 1081C1422 1081 1351 1081 1280 1081C1209 1081 1138 1081 1066.8 1081C995.7 1081 924.3 1081 853.2 1081C782 1081 711 1081 640 1081C569 1081 498 1081 426.8 1081C355.7 1081 284.3 1081 213.2 1081C142 1081 71 1081 35.5 1081L0 1081Z" fill="#08ff00"></path><path d="M0 843L35.5 856.3C71 869.7 142 896.3 213.2 894.8C284.3 893.3 355.7 863.7 426.8 842.7C498 821.7 569 809.3 640 819.3C711 829.3 782 861.7 853.2 884.7C924.3 907.7 995.7 921.3 1066.8 923.2C1138 925 1209 915 1280 893.5C1351 872 1422 839 1493.2 822.5C1564.3 806 1635.7 806 1706.8 805.8C1778 805.7 1849 805.3 1884.5 805.2L1920 805L1920 1081L1884.5 1081C1849 1081 1778 1081 1706.8 1081C1635.7 1081 1564.3 1081 1493.2 1081C1422 1081 1351 1081 1280 1081C1209 1081 1138 1081 1066.8 1081C995.7 1081 924.3 1081 853.2 1081C782 1081 711 1081 640 1081C569 1081 498 1081 426.8 1081C355.7 1081 284.3 1081 213.2 1081C142 1081 71 1081 35.5 1081L0 1081Z" fill="#129e21"></path><path d="M0 971L35.5 959.3C71 947.7 142 924.3 213.2 923.7C284.3 923 355.7 945 426.8 954C498 963 569 959 640 960C711 961 782 967 853.2 967.3C924.3 967.7 995.7 962.3 1066.8 966C1138 969.7 1209 982.3 1280 986C1351 989.7 1422 984.3 1493.2 977C1564.3 969.7 1635.7 960.3 1706.8 951C1778 941.7 1849 932.3 1884.5 927.7L1920 923L1920 1081L1884.5 1081C1849 1081 1778 1081 1706.8 1081C1635.7 1081 1564.3 1081 1493.2 1081C1422 1081 1351 1081 1280 1081C1209 1081 1138 1081 1066.8 1081C995.7 1081 924.3 1081 853.2 1081C782 1081 711 1081 640 1081C569 1081 498 1081 426.8 1081C355.7 1081 284.3 1081 213.2 1081C142 1081 71 1081 35.5 1081L0 1081Z" fill="#164719"></path></svg>