<svg id="visual" viewBox="0 0 1920 1080" width="1920" height="1080" xmlns="http://www.w3.org/2000/svg" xmlns:xlink="http://www.w3.org/1999/xlink" version="1.1"><rect x="0" y="0" width="1920" height="1080" fill="#ffffff"></rect><path d="M0 550L40 579.2C80 608.3 160 666.7 240 677.5C320 688.3 400 651.7 480 652C560 652.3 640 689.7 720 676.8C800 664 880 601 960 598.3C1040 595.7 1120 653.3 1200 657.7C1280 662 1360 613 1440 612.5C1520 612 1600 660 1680 667.3C1760 674.7 1840 641.3 1880 624.7L1920 608L1920 1081L1880 1081C1840 1081 1760 1081 1680 1081C1600 1081 1520 1081 1440 1081C1360 1081 1280 1081 1200 1081C1120 1081 1040 1081 960 1081C880 1081 800 1081 720 1081C640 1081 560 1081 480 1081C400 1081 320 1081 240 1081C160 1081 80 1081 40 1081L0 1081Z" fill="#08ff00"></path><path d="M0 826L40 807.3C80 788.7 160 751.3 240 743.5C320 735.7 400 757.3 480 768.8C560 780.3 640 781.7 720 763.3C800 745 880 707 960 712.2C1040 717.3 1120 765.7 1200 764C1280 762.3 1360 710.7 1440 698.3C1520 686 1600 713 1680 739.8C1760 766.7 1840 793.3 1880 806.7L1920 820L1920 1081L1880 1081C1840 1081 1760 1081 1680 1081C1600 1081 1520 1081 1440 1081C1360 1081 1280 1081 1200 1081C1120 1081 1040 1081 960 1081C880 1081 800 1081 720 1081C640 1081 560 1081 480 1081C400 1081 320 1081 240 1081C160 1081 80 1081 40 1081L0 1081Z" fill="#03c611"></path><path d="M0 837L40 829C80 821 160 805 240 796.8C320 788.7 400 788.3 480 791.7C560 795 640 802 720 819.3C800 836.7 880 864.3 960 871.2C1040 878 1120 864 1200 854.2C1280 844.3 1360 838.7 1440 828.2C1520 817.7 1600 802.3 1680 803.5C1760 804.7 1840 822.3 1880 831.2L1920 840L1920 1081L1880 1081C1840 1081 1760 1081 1680 1081C1600 1081 1520 1081 1440 1081C1360 1081 1280 1081 1200 1081C1120 1081 1040 1081 960 1081C880 1081 800 1081 720 1081C640 1081 560 1081 480 1081C400 1081 320 1081 240 1081C160 1081 80 1081 40 1081L0 1081Z" fill="#068f13"></path><path d="M0 896L40 906.8C80 917.7 160 939.3 240 950.2C320 961 400 961 480 959.5C560 958 640 955 720 950C800 945 880 938 960 930.2C1040 922.3 1120 913.7 1200 915.2C1280 916.7 1360 928.3 1440 926.5C1520 924.7 1600 909.3 1680 907.2C1760 905 1840 916 1880 921.5L1920 927L1920 1081L1880 1081C1840 1081 1760 1081 1680 1081C1600 1081 1520 1081 1440 1081C1360 1081 1280 1081 1200 1081C1120 1081 1040 1081 960 1081C880 1081 800 1081 720 1081C640 1081 560 1081 480 1081C400 1081 320 1081 240 1081C160 1081 80 1081 40 1081L0 1081Z" fill="#095d0f"></path></svg>